<svg xmlns="http://www.w3.org/2000/svg" viewBox="0 0 1200 700" width="1200" height="700" role="img" preserveAspectRatio="xMidYMid meet"><rect width="1200" height="700" fill="#f2ece1"/><ellipse cx="600" cy="360" rx="500" ry="315" fill="#d1611f" opacity="0.10"/><rect x="0" y="560" width="1200" height="140" fill="#e4ddce"/><ellipse cx="610" cy="556" rx="440" ry="30" fill="#000" opacity="0.13"/><circle cx="330" cy="520" r="150" fill="none" stroke="#211f1c" stroke-width="16"/><circle cx="330" cy="520" r="135" fill="none" stroke="#6f6c66" stroke-width="7"/><line x1="330.0" y1="520.0" x2="464.0" y2="520.0" stroke="#6f6c66" stroke-width="2.2" opacity="0.7"/><line x1="330.0" y1="520.0" x2="446.0" y2="587.0" stroke="#6f6c66" stroke-width="2.2" opacity="0.7"/><line x1="330.0" y1="520.0" x2="397.0" y2="636.0" stroke="#6f6c66" stroke-width="2.2" opacity="0.7"/><line x1="330.0" y1="520.0" x2="330.0" y2="654.0" stroke="#6f6c66" stroke-width="2.2" opacity="0.7"/><line x1="330.0" y1="520.0" x2="263.0" y2="636.0" stroke="#6f6c66" stroke-width="2.2" opacity="0.7"/><line x1="330.0" y1="520.0" x2="214.0" y2="587.0" stroke="#6f6c66" stroke-width="2.2" opacity="0.7"/><line x1="330.0" y1="520.0" x2="196.0" y2="520.0" stroke="#6f6c66" stroke-width="2.2" opacity="0.7"/><line x1="330.0" y1="520.0" x2="214.0" y2="453.0" stroke="#6f6c66" stroke-width="2.2" opacity="0.7"/><line x1="330.0" y1="520.0" x2="263.0" y2="404.0" stroke="#6f6c66" stroke-width="2.2" opacity="0.7"/><line x1="330.0" y1="520.0" x2="330.0" y2="386.0" stroke="#6f6c66" stroke-width="2.2" opacity="0.7"/><line x1="330.0" y1="520.0" x2="397.0" y2="404.0" stroke="#6f6c66" stroke-width="2.2" opacity="0.7"/><line x1="330.0" y1="520.0" x2="446.0" y2="453.0" stroke="#6f6c66" stroke-width="2.2" opacity="0.7"/><circle cx="330" cy="520" r="13" fill="#2a2825"/><circle cx="330" cy="520" r="5" fill="#d1611f"/><circle cx="890" cy="520" r="150" fill="none" stroke="#211f1c" stroke-width="16"/><circle cx="890" cy="520" r="135" fill="none" stroke="#6f6c66" stroke-width="7"/><line x1="890.0" y1="520.0" x2="1024.0" y2="520.0" stroke="#6f6c66" stroke-width="2.2" opacity="0.7"/><line x1="890.0" y1="520.0" x2="1006.0" y2="587.0" stroke="#6f6c66" stroke-width="2.2" opacity="0.7"/><line x1="890.0" y1="520.0" x2="957.0" y2="636.0" stroke="#6f6c66" stroke-width="2.2" opacity="0.7"/><line x1="890.0" y1="520.0" x2="890.0" y2="654.0" stroke="#6f6c66" stroke-width="2.2" opacity="0.7"/><line x1="890.0" y1="520.0" x2="823.0" y2="636.0" stroke="#6f6c66" stroke-width="2.2" opacity="0.7"/><line x1="890.0" y1="520.0" x2="774.0" y2="587.0" stroke="#6f6c66" stroke-width="2.2" opacity="0.7"/><line x1="890.0" y1="520.0" x2="756.0" y2="520.0" stroke="#6f6c66" stroke-width="2.2" opacity="0.7"/><line x1="890.0" y1="520.0" x2="774.0" y2="453.0" stroke="#6f6c66" stroke-width="2.2" opacity="0.7"/><line x1="890.0" y1="520.0" x2="823.0" y2="404.0" stroke="#6f6c66" stroke-width="2.2" opacity="0.7"/><line x1="890.0" y1="520.0" x2="890.0" y2="386.0" stroke="#6f6c66" stroke-width="2.2" opacity="0.7"/><line x1="890.0" y1="520.0" x2="957.0" y2="404.0" stroke="#6f6c66" stroke-width="2.2" opacity="0.7"/><line x1="890.0" y1="520.0" x2="1006.0" y2="453.0" stroke="#6f6c66" stroke-width="2.2" opacity="0.7"/><circle cx="890" cy="520" r="13" fill="#2a2825"/><circle cx="890" cy="520" r="5" fill="#d1611f"/><line x1="482.0" y1="520.0" x2="489.0" y2="520.0" stroke="#211f1c" stroke-width="3"/><line x1="478.7" y1="551.6" x2="485.5" y2="553.1" stroke="#211f1c" stroke-width="3"/><line x1="468.9" y1="581.8" x2="475.3" y2="584.7" stroke="#211f1c" stroke-width="3"/><line x1="453.0" y1="609.3" x2="458.6" y2="613.5" stroke="#211f1c" stroke-width="3"/><line x1="431.7" y1="633.0" x2="436.4" y2="638.2" stroke="#211f1c" stroke-width="3"/><line x1="406.0" y1="651.6" x2="409.5" y2="657.7" stroke="#211f1c" stroke-width="3"/><line x1="377.0" y1="664.6" x2="379.1" y2="671.2" stroke="#211f1c" stroke-width="3"/><line x1="345.9" y1="671.2" x2="346.6" y2="678.1" stroke="#211f1c" stroke-width="3"/><line x1="314.1" y1="671.2" x2="313.4" y2="678.1" stroke="#211f1c" stroke-width="3"/><line x1="283.0" y1="664.6" x2="280.9" y2="671.2" stroke="#211f1c" stroke-width="3"/><line x1="254.0" y1="651.6" x2="250.5" y2="657.7" stroke="#211f1c" stroke-width="3"/><line x1="228.3" y1="633.0" x2="223.6" y2="638.2" stroke="#211f1c" stroke-width="3"/><line x1="207.0" y1="609.3" x2="201.4" y2="613.5" stroke="#211f1c" stroke-width="3"/><line x1="191.1" y1="581.8" x2="184.7" y2="584.7" stroke="#211f1c" stroke-width="3"/><line x1="181.3" y1="551.6" x2="174.5" y2="553.1" stroke="#211f1c" stroke-width="3"/><line x1="178.0" y1="520.0" x2="171.0" y2="520.0" stroke="#211f1c" stroke-width="3"/><line x1="181.3" y1="488.4" x2="174.5" y2="486.9" stroke="#211f1c" stroke-width="3"/><line x1="191.1" y1="458.2" x2="184.7" y2="455.3" stroke="#211f1c" stroke-width="3"/><line x1="207.0" y1="430.7" x2="201.4" y2="426.5" stroke="#211f1c" stroke-width="3"/><line x1="228.3" y1="407.0" x2="223.6" y2="401.8" stroke="#211f1c" stroke-width="3"/><line x1="254.0" y1="388.4" x2="250.5" y2="382.3" stroke="#211f1c" stroke-width="3"/><line x1="283.0" y1="375.4" x2="280.9" y2="368.8" stroke="#211f1c" stroke-width="3"/><line x1="314.1" y1="368.8" x2="313.4" y2="361.9" stroke="#211f1c" stroke-width="3"/><line x1="345.9" y1="368.8" x2="346.6" y2="361.9" stroke="#211f1c" stroke-width="3"/><line x1="377.0" y1="375.4" x2="379.1" y2="368.8" stroke="#211f1c" stroke-width="3"/><line x1="406.0" y1="388.4" x2="409.5" y2="382.3" stroke="#211f1c" stroke-width="3"/><line x1="431.7" y1="407.0" x2="436.4" y2="401.8" stroke="#211f1c" stroke-width="3"/><line x1="453.0" y1="430.7" x2="458.6" y2="426.5" stroke="#211f1c" stroke-width="3"/><line x1="468.9" y1="458.2" x2="475.3" y2="455.3" stroke="#211f1c" stroke-width="3"/><line x1="478.7" y1="488.4" x2="485.5" y2="486.9" stroke="#211f1c" stroke-width="3"/><line x1="1042.0" y1="520.0" x2="1049.0" y2="520.0" stroke="#211f1c" stroke-width="3"/><line x1="1038.7" y1="551.6" x2="1045.5" y2="553.1" stroke="#211f1c" stroke-width="3"/><line x1="1028.9" y1="581.8" x2="1035.3" y2="584.7" stroke="#211f1c" stroke-width="3"/><line x1="1013.0" y1="609.3" x2="1018.6" y2="613.5" stroke="#211f1c" stroke-width="3"/><line x1="991.7" y1="633.0" x2="996.4" y2="638.2" stroke="#211f1c" stroke-width="3"/><line x1="966.0" y1="651.6" x2="969.5" y2="657.7" stroke="#211f1c" stroke-width="3"/><line x1="937.0" y1="664.6" x2="939.1" y2="671.2" stroke="#211f1c" stroke-width="3"/><line x1="905.9" y1="671.2" x2="906.6" y2="678.1" stroke="#211f1c" stroke-width="3"/><line x1="874.1" y1="671.2" x2="873.4" y2="678.1" stroke="#211f1c" stroke-width="3"/><line x1="843.0" y1="664.6" x2="840.9" y2="671.2" stroke="#211f1c" stroke-width="3"/><line x1="814.0" y1="651.6" x2="810.5" y2="657.7" stroke="#211f1c" stroke-width="3"/><line x1="788.3" y1="633.0" x2="783.6" y2="638.2" stroke="#211f1c" stroke-width="3"/><line x1="767.0" y1="609.3" x2="761.4" y2="613.5" stroke="#211f1c" stroke-width="3"/><line x1="751.1" y1="581.8" x2="744.7" y2="584.7" stroke="#211f1c" stroke-width="3"/><line x1="741.3" y1="551.6" x2="734.5" y2="553.1" stroke="#211f1c" stroke-width="3"/><line x1="738.0" y1="520.0" x2="731.0" y2="520.0" stroke="#211f1c" stroke-width="3"/><line x1="741.3" y1="488.4" x2="734.5" y2="486.9" stroke="#211f1c" stroke-width="3"/><line x1="751.1" y1="458.2" x2="744.7" y2="455.3" stroke="#211f1c" stroke-width="3"/><line x1="767.0" y1="430.7" x2="761.4" y2="426.5" stroke="#211f1c" stroke-width="3"/><line x1="788.3" y1="407.0" x2="783.6" y2="401.8" stroke="#211f1c" stroke-width="3"/><line x1="814.0" y1="388.4" x2="810.5" y2="382.3" stroke="#211f1c" stroke-width="3"/><line x1="843.0" y1="375.4" x2="840.9" y2="368.8" stroke="#211f1c" stroke-width="3"/><line x1="874.1" y1="368.8" x2="873.4" y2="361.9" stroke="#211f1c" stroke-width="3"/><line x1="905.9" y1="368.8" x2="906.6" y2="361.9" stroke="#211f1c" stroke-width="3"/><line x1="937.0" y1="375.4" x2="939.1" y2="368.8" stroke="#211f1c" stroke-width="3"/><line x1="966.0" y1="388.4" x2="969.5" y2="382.3" stroke="#211f1c" stroke-width="3"/><line x1="991.7" y1="407.0" x2="996.4" y2="401.8" stroke="#211f1c" stroke-width="3"/><line x1="1013.0" y1="430.7" x2="1018.6" y2="426.5" stroke="#211f1c" stroke-width="3"/><line x1="1028.9" y1="458.2" x2="1035.3" y2="455.3" stroke="#211f1c" stroke-width="3"/><line x1="1038.7" y1="488.4" x2="1045.5" y2="486.9" stroke="#211f1c" stroke-width="3"/><line x1="585" y1="495" x2="330" y2="520" stroke="#3d3a35" stroke-width="4"/><line x1="585" y1="503" x2="330" y2="528" stroke="#3d3a35" stroke-width="3" opacity="0.6"/><line x1="585" y1="495" x2="330" y2="520" stroke="#1b1815" stroke-width="15" stroke-linecap="round"/><line x1="585" y1="495" x2="330" y2="520" stroke="#a7a49e" stroke-width="11" stroke-linecap="round"/><line x1="620" y1="250" x2="330" y2="520" stroke="#1b1815" stroke-width="14" stroke-linecap="round"/><line x1="620" y1="250" x2="330" y2="520" stroke="#a7a49e" stroke-width="10" stroke-linecap="round"/><line x1="585" y1="495" x2="620" y2="250" stroke="#1b1815" stroke-width="18" stroke-linecap="round"/><line x1="585" y1="495" x2="620" y2="250" stroke="#a7a49e" stroke-width="14" stroke-linecap="round"/><line x1="585" y1="495" x2="861" y2="315" stroke="#1b1815" stroke-width="20" stroke-linecap="round"/><line x1="585" y1="495" x2="861" y2="315" stroke="#a7a49e" stroke-width="16" stroke-linecap="round"/><line x1="620" y1="250" x2="835" y2="212" stroke="#1b1815" stroke-width="17" stroke-linecap="round"/><line x1="620" y1="250" x2="835" y2="212" stroke="#a7a49e" stroke-width="13" stroke-linecap="round"/><line x1="835" y1="212" x2="861" y2="315" stroke="#1b1815" stroke-width="19" stroke-linecap="round"/><line x1="835" y1="212" x2="861" y2="315" stroke="#a7a49e" stroke-width="15" stroke-linecap="round"/><line x1="861" y1="315" x2="879" y2="430" stroke="#1b1815" stroke-width="20" stroke-linecap="round"/><line x1="861" y1="315" x2="879" y2="430" stroke="#a7a49e" stroke-width="15" stroke-linecap="round"/><line x1="879" y1="424" x2="890" y2="520" stroke="#1b1815" stroke-width="24" stroke-linecap="round"/><line x1="879" y1="424" x2="890" y2="520" stroke="#3a3d3e" stroke-width="18" stroke-linecap="round"/><line x1="835" y1="212" x2="833" y2="166" stroke="#1b1815" stroke-width="12" stroke-linecap="round"/><line x1="835" y1="212" x2="833" y2="166" stroke="#3a3d3e" stroke-width="8" stroke-linecap="round"/><line x1="833" y1="166" x2="790" y2="150" stroke="#1b1815" stroke-width="12" stroke-linecap="round"/><line x1="833" y1="166" x2="790" y2="150" stroke="#3a3d3e" stroke-width="8" stroke-linecap="round"/><line x1="798" y1="153" x2="772" y2="143" stroke="#d1611f" stroke-width="10" stroke-linecap="round"/><path d="M590 236 q 40 -12 66 -2 q 4 8 -6 10 q -34 6 -60 2 z" fill="#1b1815"/><line x1="620" y1="250" x2="622" y2="236" stroke="#3a3d3e" stroke-width="9" stroke-linecap="round"/><circle cx="585" cy="495" r="26" fill="none" stroke="#8a8781" stroke-width="4"/><circle cx="585" cy="495" r="9" fill="#3a3d3e"/><line x1="585" y1="495" x2="612" y2="521" stroke="#2a2825" stroke-width="7" stroke-linecap="round"/><rect x="604" y="517" width="24" height="8" rx="2" fill="#1b1815"/><circle cx="330" cy="520" r="15" fill="none" stroke="#8a8781" stroke-width="4"/><circle cx="838" cy="220" r="6.5" fill="#d1611f" stroke="#1b1815" stroke-width="2"/></svg>